<?xml version="1.0" encoding="utf-8"?>
<!-- Generator: Adobe Illustrator 23.0.1, SVG Export Plug-In . SVG Version: 6.00 Build 0)  -->
<svg version="1.1" id="Layer_1" xmlns="http://www.w3.org/2000/svg" xmlns:xlink="http://www.w3.org/1999/xlink" x="0px" y="0px"
	 viewBox="0 0 300.24 300.24" style="enable-background:new 0 0 300.24 300.24;" xml:space="preserve">
<style type="text/css">
	.st0{fill:none;}
	.st1{fill:#D2B58A;}
	.st2{fill:#232B5B;}
	.st3{fill:#141313;}
</style>
<g>
	<line class="st0" x1="110.66" y1="242.36" x2="110.33" y2="241.77"/>
	<line class="st0" x1="95.36" y1="230.07" x2="94.43" y2="229.56"/>
	<path class="st1" d="M143.71,152.39l6.47,2.86c-0.26-0.11-0.51-0.22-0.76-0.33l-54.06,75.14l-0.93-0.51
		c-11.69,2.22-20.5,4.78-33.39,2.04c-4.93-1.62-4.6-2.37-7.81-5.34c-2.98-3.39-6.12-7.35-3.99-13.41l6.23-14.45
		c-0.94-3.09-1.84-6.19-3.33-9.08c1.09-1.06,2.31-1.89,3.85-2.08l5.08,1.02l-6.57-4.95l-3.01-2.88c2.67-3.56,5.5-4.13,5.43-14.9
		l-13.51-5.67c-3.13-1.95-3.63-7.27-2.06-11.92l25.67-28.04l-3.46-7.64l1.52-3.5c-10.72-0.58-21.12-4.64-31.45-11.52l-1.53-2.6
		c8.13-0.49,16.13-1.35,22.82-5.95c0.91-16.1,9.71-26.22,15.1-37.53c19.01-39.98,59.81-53.19,99.98-48.12
		c19.62,2.48,39.07,9.32,55.75,19.52c2.38,1.57,4.65,3.2,6.82,4.9L143.71,152.39z"/>
	<path class="st2" d="M252.65,49.31l-81.4,114.41c0,0-0.01,0-0.02-0.01c-1.24-0.46-2.49-0.93-3.74-1.4
		c-0.91-0.35-1.83-0.7-2.73-1.05c-1-0.39-2.01-0.79-3.01-1.19c-0.64-0.25-1.28-0.51-1.91-0.77c-0.86-0.34-1.7-0.69-2.54-1.03
		l86.03-120.92C246.83,41.13,249.93,45.12,252.65,49.31z"/>
	<path class="st2" d="M265.67,81.12l-65.33,91.81c-0.62-0.16-1.23-0.33-1.85-0.49c-0.61-0.15-1.23-0.33-1.84-0.5
		c-0.62-0.17-1.23-0.34-1.85-0.51c-0.59-0.16-1.17-0.33-1.76-0.5c-0.7-0.21-1.4-0.41-2.09-0.63c-0.57-0.16-1.13-0.33-1.7-0.51
		c-1.23-0.38-2.46-0.75-3.69-1.15l74.68-104.96C262.58,69.28,264.38,75.11,265.67,81.12z"/>
	<path class="st2" d="M266.94,177.37l-0.78,1.86c-5.77,0.48-11.51,0.67-17.24,0.57l9.27-13.03
		C260.31,171.32,263.7,174.24,266.94,177.37z"/>
	<path class="st2" d="M265.76,131.08l-33.89,47.64c-1.32-0.14-2.63-0.3-3.94-0.47c-0.68-0.09-1.36-0.17-2.05-0.27
		c-0.53-0.06-1.05-0.13-1.59-0.21c-0.31-0.04-0.61-0.09-0.92-0.14c-0.51-0.07-1.02-0.15-1.53-0.22c-0.51-0.08-1.02-0.16-1.53-0.24
		c-1.53-0.25-3.06-0.51-4.6-0.81l52.4-73.65C268.32,111.98,267.51,121.5,265.76,131.08z"/>
	<path class="st1" d="M238.7,253c-1.53-0.03-3.08-0.03-4.63-0.03c-59.39,0-110.84,18.3-136.07,45.03c-0.14-0.08-0.28-0.15-0.42-0.23
		c6.61-10.74,14.54-22.16,18.84-31.74c-1.18-2.56-2.85-5.33-5.25-8.55l1.39-11.19l-1.89-3.93l-0.33-0.58L165,165.8l2.49-3.48
		c1.25,0.47,2.49,0.93,3.74,1.4c0.01,0.01,0.02,0.01,0.02,0.01c0.63,0.23,1.24,0.46,1.85,0.68c1.67,0.61,3.35,1.2,5.03,1.78
		c0.23,0.08,0.47,0.16,0.7,0.24c0.61,0.21,1.21,0.41,1.81,0.62c0.63,0.21,1.26,0.42,1.89,0.63c1.01,0.33,2.02,0.67,3.03,0.99
		c1.23,0.39,2.45,0.77,3.69,1.15c0.57,0.17,1.13,0.34,1.7,0.51c0.69,0.21,1.39,0.42,2.09,0.63c0.58,0.16,1.17,0.33,1.76,0.5
		c0.62,0.17,1.23,0.34,1.85,0.51c0.62,0.17,1.23,0.34,1.84,0.5c0.62,0.16,1.23,0.33,1.85,0.49c0.57,0.15,1.16,0.3,1.73,0.45
		c0.7,0.17,1.41,0.35,2.13,0.52c0.56,0.13,1.1,0.27,1.65,0.39c0.8,0.18,1.59,0.37,2.38,0.54c0.57,0.13,1.16,0.26,1.73,0.39
		c0.58,0.12,1.17,0.25,1.75,0.36c0.13,0.03,0.26,0.06,0.38,0.08c0.56,0.12,1.12,0.23,1.68,0.34c0.03,0.01,0.04,0.01,0.07,0.01
		l1.88,0.36c1.54,0.29,3.08,0.56,4.6,0.81c0.51,0.08,1.02,0.16,1.53,0.24c0.51,0.08,1.02,0.15,1.53,0.22
		c0.31,0.05,0.61,0.09,0.92,0.14c0.53,0.08,1.05,0.15,1.59,0.21c0.69,0.09,1.37,0.18,2.05,0.27c-1.15,1.46-2.07,2.56-2.07,2.56
		l-6.71,8.42c-0.8,4.69-1.41,7.53-1.67,9.72c-0.19,1.57-0.21,2.81-0.02,4.17c0.21,1.4,0.64,2.91,1.38,5.05
		c0.24,0.71,2.08-0.5,3.7-1.43c1.19-0.69,2.25-1.22,2.47-0.7c0.38,0.9,0.67,1.95,0.92,3.12c1.71,8.04,1.03,21.74,6.36,31.94
		C234.44,244.89,236.59,248.88,238.7,253z"/>
	<path class="st1" d="M252.65,49.31l-81.4,114.41c0,0-0.01,0-0.02-0.01c-1.24-0.46-2.49-0.93-3.74-1.4
		c-0.91-0.35-1.83-0.7-2.73-1.05c-1-0.39-2.01-0.79-3.01-1.19c-0.64-0.25-1.28-0.51-1.91-0.77c-0.86-0.34-1.7-0.69-2.54-1.03
		l86.03-120.92C246.83,41.13,249.93,45.12,252.65,49.31z"/>
	<path class="st1" d="M265.67,81.12l-65.33,91.81c-0.62-0.16-1.23-0.33-1.85-0.49c-0.61-0.15-1.23-0.33-1.84-0.5
		c-0.62-0.17-1.23-0.34-1.85-0.51c-0.59-0.16-1.17-0.33-1.76-0.5c-0.7-0.21-1.4-0.41-2.09-0.63c-0.57-0.16-1.13-0.33-1.7-0.51
		c-1.23-0.38-2.46-0.75-3.69-1.15l74.68-104.96C262.58,69.28,264.38,75.11,265.67,81.12z"/>
	<path class="st1" d="M265.76,131.08l-33.89,47.64c-1.32-0.14-2.63-0.3-3.94-0.47c-0.68-0.09-1.36-0.17-2.05-0.27
		c-0.53-0.06-1.05-0.13-1.59-0.21c-0.31-0.04-0.61-0.09-0.92-0.14c-0.51-0.07-1.02-0.15-1.53-0.22c-0.51-0.08-1.02-0.16-1.53-0.24
		c-1.53-0.25-3.06-0.51-4.6-0.81l52.4-73.65C268.32,111.98,267.51,121.5,265.76,131.08z"/>
	<path class="st1" d="M266.94,177.37l-0.78,1.86c-5.77,0.48-11.51,0.67-17.24,0.57l9.27-13.03
		C260.31,171.32,263.7,174.24,266.94,177.37z"/>
	<polygon class="st3" points="157.12,252.51 159.28,259.14 153.63,255.04 148,259.14 150.15,252.51 144.51,248.41 151.48,248.41 
		153.63,241.77 155.79,248.41 162.76,248.41 	"/>
	<polygon class="st3" points="209.08,218.03 212.57,228.76 223.85,228.76 214.72,235.4 218.21,246.13 209.08,239.5 199.95,246.13 
		203.43,235.4 194.3,228.76 205.59,228.76 	"/>
	<polygon class="st3" points="179.4,230.25 182.06,239.05 190.66,239.05 183.7,244.49 186.36,253.29 179.4,247.85 172.44,253.29 
		175.1,244.49 168.14,239.05 176.74,239.05 	"/>
</g>
</svg>
